<svg xmlns="http://www.w3.org/2000/svg" viewBox="0 0 128 128" width="128" height="128">
  <defs>
    <linearGradient id="shieldGrad" x1="0%" y1="0%" x2="100%" y2="100%">
      <stop offset="0%" style="stop-color:#0f62fe;stop-opacity:1" />
      <stop offset="100%" style="stop-color:#be95ff;stop-opacity:1" />
    </linearGradient>
  </defs>
  <!-- Shield body -->
  <path d="M64 8 L112 28 L112 60 C112 88 92 110 64 120 C36 110 16 88 16 60 L16 28 Z"
        fill="url(#shieldGrad)" stroke="none" />
  <!-- Inner shield highlight -->
  <path d="M64 16 L104 33 L104 60 C104 84 87 103 64 112 C41 103 24 84 24 60 L24 33 Z"
        fill="none" stroke="#ffffff" stroke-width="1.5" opacity="0.3" />
  <!-- Lock body -->
  <rect x="48" y="58" width="32" height="26" rx="3" ry="3" fill="#ffffff" opacity="0.9" />
  <!-- Lock shackle -->
  <path d="M52 58 L52 48 C52 40 56 36 64 36 C72 36 76 40 76 48 L76 58"
        fill="none" stroke="#ffffff" stroke-width="4" stroke-linecap="round" opacity="0.9" />
  <!-- Keyhole -->
  <circle cx="64" cy="68" r="4" fill="#0f62fe" />
  <rect x="62" y="68" width="4" height="8" rx="1" fill="#0f62fe" />
  <!-- Quantum orbit rings -->
  <ellipse cx="64" cy="52" rx="38" ry="12" fill="none" stroke="#be95ff" stroke-width="1.5"
           opacity="0.6" transform="rotate(-30 64 52)" />
  <ellipse cx="64" cy="52" rx="38" ry="12" fill="none" stroke="#be95ff" stroke-width="1.5"
           opacity="0.6" transform="rotate(30 64 52)" />
  <!-- Quantum dots on orbits -->
  <circle cx="34" cy="38" r="3" fill="#be95ff" opacity="0.8" />
  <circle cx="94" cy="38" r="3" fill="#be95ff" opacity="0.8" />
  <circle cx="42" cy="66" r="2.5" fill="#be95ff" opacity="0.7" />
  <circle cx="86" cy="66" r="2.5" fill="#be95ff" opacity="0.7" />
</svg>
